Coordinates
version=1
nRows=7
nColumns=33
inDegrees=yes

Units are S.I. units (second, meters, Newtons, ...)
Angles are in degrees.

endheader
time	ground_thorax_rot_x	ground_thorax_rot_y	ground_thorax_rot_z	ground_thorax_tx	ground_thorax_ty	ground_thorax_tz	clav_prot_r	clav_elev_r	scapula_abduction_r	scapula_elevation_r	scapula_upward_rot_r	scapula_winging_r	shoulder_elv_r	plane_of_elev_r	axial_rot_r	elbow_flexion_r	pro_sup_r	wrist_flex_r	wrist_dev_r	clav_prot_l	clav_elev_l	scapula_abduction_l	scapula_elevation_l	scapula_upward_rot_l	scapula_winging_l	shoulder_elv_l	plane_of_elev_l	axial_rot_l	elbow_flexion_l	pro_sup_l	wrist_flex_l	wrist_dev_l
      4.58000000	     30.26670913	     30.79068943	     39.06218367	    -29.06629101	    788.93115083	    -44.97333498	     12.68410143	     35.31967775	     26.43705865	     45.00000000	    -45.00000000	   -446.03233306	  -3707.41698350	    159.70319453	     25.89401057	      1.13996908	    168.68020009	     12.08052424	     14.45647584	    -10.82368321	    -45.00000000	    -36.05277413	     45.00000000	    -45.00000000	  -4216.84446400	    -91.48909441	    136.94797706	   -137.54430426	   1069.34279123	    405.62643503	     12.36022857	    -16.51941415
      4.59000000	     30.34753516	     30.51892060	     38.81019101	    -32.16676662	    790.75878761	    -44.99030475	     12.68084906	     35.27312021	     26.41785748	     45.00000000	    -45.00000000	   -446.18793411	  -3707.31721809	    159.73168367	     25.87842010	      1.11011151	    168.18809848	     12.07145922	     14.53033224	    -10.66874171	    -45.00000000	    -36.20262474	     45.00000000	    -45.00000000	  -4216.73459684	    -91.32483179	    136.88068665	   -137.36023478	   1069.37664859	    405.56022632	     12.40891835	    -16.58396427
      4.60000000	     30.41340511	     30.22507325	     38.57742202	    -35.21860508	    792.64682966	    -45.01235864	     12.75155328	     35.17388881	     26.39702067	     45.00000000	    -45.00000000	   -446.41183316	  -3707.25800992	    159.66074903	     25.86706232	      1.07658149	    167.60501276	     12.05793759	     14.62048637	    -10.50224196	    -45.00000000	    -36.38240202	     45.00000000	    -45.00000000	  -4216.55550273	    -91.18134198	    136.81096363	   -137.18033535	   1069.40691036	    405.51919744	     12.47161299	    -16.67741992
      4.61000000	     30.50331229	     29.90266707	     38.33280082	    -38.21832730	    794.59112907	    -45.03701639	     12.63883363	     35.29290297	     26.41803980	     45.00000000	    -45.00000000	   -446.57267205	  -3707.18732618	    159.64778722	     25.76736718	      1.05841712	    167.09181379	     12.05969622	     14.67310227	    -10.43196463	    -45.00000000	    -36.46017789	     45.00000000	    -45.00000000	  -4216.49070136	    -90.98041955	    136.79680560	   -136.94738851	   1069.42212870	    405.51443400	     12.48067960	    -16.72136661
      4.62000000	     30.56988893	     29.63632183	     38.08300966	    -41.16478936	    796.58822767	    -45.06167719	     12.74155553	     35.16637759	     26.40277671	     45.00000000	    -45.00000000	   -446.76743483	  -3707.10571477	    159.63224680	     25.70750744	      1.02798276	    166.48851704	     12.05133526	     14.75064440	    -10.25310447	    -45.00000000	    -36.65694142	     45.00000000	    -45.00000000	  -4216.34070588	    -90.84798886	    136.70182900	   -136.74373731	   1069.46498792	    405.52418397	     12.52465531	    -16.82673002
      4.63000000	     30.61800585	     29.36563951	     37.87275820	    -44.05953813	    798.63650010	    -45.08478313	     12.73463474	     35.15576594	     26.42331979	     45.00000000	    -45.00000000	   -446.97779960	  -3707.05030910	    159.59089769	     25.59669445	      1.01443317	    165.85486215	     12.04417273	     14.81184809	    -10.12403821	    -45.00000000	    -36.79755714	     45.00000000	    -45.00000000	  -4216.22439448	    -90.67046753	    136.64048837	   -136.56915506	   1069.51188496	    405.54151907	     12.55310240	    -16.92209140
      4.64000000	     30.65846975	     29.08620664	     37.67421195	    -46.89978450	    800.73151886	    -45.10567986	     12.74927051	     35.09899074	     26.41897309	     45.00000000	    -45.00000000	   -447.16551876	  -3706.99441327	    159.54740756	     25.51455069	      0.96392446	    165.20935771	     12.04941934	     14.86564441	     -9.94260595	    -45.00000000	    -36.95940973	     45.00000000	    -45.00000000	  -4216.07255161	    -90.51274687	    136.59331933	   -136.38673991	   1069.53380031	    405.56154738	     12.58540318	    -17.01466379
